<?xml version="1.0" encoding="utf-8"?>
<!-- Generator: Adobe Illustrator 23.0.3, SVG Export Plug-In . SVG Version: 6.00 Build 0)  -->
<svg version="1.1" id="Capa_1" xmlns="http://www.w3.org/2000/svg" xmlns:xlink="http://www.w3.org/1999/xlink" x="0px" y="0px"
	 viewBox="0 0 252.3 45.4" style="enable-background:new 0 0 252.3 45.4;" xml:space="preserve">
<style type="text/css">
	.st0{fill:#646469;}
	.st1{fill:#003E2C;}
	.st2{enable-background:new    ;}
	.st3{fill:#1F140F;}
</style>
<path class="st0" d="M158.9,33l-7.6-18.2c-4-9.6-4.3-10.1-6.9-10.1h-0.4V3.9h11.7v0.8h-0.9c-1.6,0-2.5,0.2-2.5,1.5s0.8,3.7,2.7,8.1
	l5.9,14.1l4.6-11.3l-1-2.3c-4-9.6-4.3-10.1-6.9-10.1h-0.4V3.9h18v0.8c-2.8,0-4.1,1.8-7.2,9.4l6,14.3l5.4-13.5c1.6-4,2.4-6.5,2.4-8.1
	s-0.8-2.1-2.4-2.1h-0.7V3.9h9.7v0.8c-2.9,0-4.6,1.7-8,10.2L173,33h-1l-6.2-15l-6,14.9L158.9,33z M169.5,6.6c0-1.3-0.7-1.9-2.2-1.9
	c-1.4,0-2,0.4-2,1.5s0.8,3.4,2.3,6.9C168.8,10.1,169.5,8,169.5,6.6z"/>
<path class="st0" d="M184.3,22.6c0-6.5,4.1-10.7,8.8-10.7s8.8,4.1,8.8,10.7s-4.3,10.4-8.8,10.4S184.3,29,184.3,22.6z M198.3,22.6
	c0-6.9-0.8-9.9-5.1-9.9s-5.1,3-5.1,9.9s1,9.7,5.1,9.7S198.3,29.5,198.3,22.6z"/>
<path class="st0" d="M210.2,16.6c1.2-2.7,3-4.6,5.4-4.6c1,0,2,0.2,2.8,0.8v5.6h-0.6c-2.2-3.9-2.3-5.2-3.3-5.2c-1.2,0-4.3,3.1-4.3,7
	v6.6c0,4.6,0.3,4.8,2.4,5l1.8,0.2v0.8h-11v-0.8l1-0.1c2.2-0.2,2.4-0.5,2.4-5v-8.3c0-4.6-0.2-4.8-2.4-5l-1-0.1v-0.7h1.5
	c1.6,0,3.1-0.1,4.6-0.2h0.5L210.2,16.6z"/>
<path class="st0" d="M222.6,8c0-4.6-0.2-4.8-2.4-4.9l-1-0.1V2.2c2.1,0,4.2-0.3,6.2-0.8h0.5v25.2c0,4.6,0.2,4.8,2.4,5l1,0.1v0.8
	h-10.2v-0.8l1-0.1c2.2-0.2,2.4-0.5,2.4-5L222.6,8z"/>
<path class="st0" d="M248.6,27.1c0,4.6,0.2,4.7,2.4,4.7h0.4v0.8h-5.9v-3c-1.1,2.2-3.3,3.5-5.7,3.5c-4.5,0-9.1-3.7-9.1-10.3
	c0-6.5,4.3-10.7,9.1-10.7c2.3-0.2,4.5,1,5.6,3V8c0-4.6-0.2-4.8-2.4-4.9l-1-0.1V2.2c2.1,0,4.1-0.3,6.1-0.8h0.5L248.6,27.1z
	 M234.3,22.6c0,7.1,1.3,9.5,5.5,9.5s5.5-2.9,5.5-9.5s-1.3-9.8-5.6-9.8S234.3,15.5,234.3,22.6z"/>
<polygon class="st1" points="251,39 160.8,39 162.4,44.1 251,44.1 "/>
<g class="st2">
	<path class="st3" d="M29.2,19c0,8.5-6.3,15-14.6,15h-12V3.9h12C22.9,3.9,29.2,10.5,29.2,19z M22.6,19c0-5.2-3.3-8.4-8-8.4H9.5v16.9
		h5.2C19.3,27.4,22.6,24.1,22.6,19z"/>
	<path class="st3" d="M52,27.4V34H33.1V3.9h18.7v6.6H40v5h10.7v6.5H40v5.3H52z"/>
	<path class="st3" d="M66,24.1h-3.3V34h-6.9V3.9h12c5.7,0,10.3,4.6,10.3,10.3c0,3.7-2.2,7.1-5.5,8.7L79.1,34h-7.4L66,24.1z
		 M62.8,18.1h5.2c1.9,0,3.4-1.7,3.4-3.9c0-2.2-1.5-3.9-3.4-3.9h-5.2V18.1z"/>
	<path class="st3" d="M112.4,34h-6.9V16.5l-7.8,12.8H97l-7.8-12.8V34h-6.9V3.9h6.9l8.2,13.4l8.2-13.4h6.9V34z"/>
	<path class="st3" d="M135.2,29.3h-11.2l-1.5,4.7H115l10.2-30.1h8.8L144.3,34h-7.5L135.2,29.3z M133.2,22.8l-3.5-11.1l-3.5,11.1
		H133.2z"/>
</g>
</svg>
